<svg width="2452" height="1279" xmlns="http://www.w3.org/2000/svg" xmlns:xlink="http://www.w3.org/1999/xlink" xml:space="preserve" overflow="hidden"><defs><clipPath id="clip0"><rect x="1246" y="1072" width="2452" height="1279"/></clipPath></defs><g clip-path="url(#clip0)" transform="translate(-1246 -1072)"><path d="M1251.5 1562C1251.5 1294.97 1719.81 1078.5 2297.5 1078.5 2875.19 1078.5 3343.5 1294.97 3343.5 1562 3343.5 1829.03 2875.19 2045.5 2297.5 2045.5 1719.81 2045.5 1251.5 1829.03 1251.5 1562Z" stroke="#FFFFFF" stroke-width="4.58333" stroke-linecap="butt" stroke-linejoin="miter" stroke-miterlimit="8" stroke-opacity="1" fill="none" fill-rule="evenodd"/><path d="M1915 1126 1915 1993.06" stroke="#FFFFFF" stroke-width="2.29167" stroke-linecap="butt" stroke-linejoin="miter" stroke-miterlimit="8" stroke-opacity="1" fill="none" fill-rule="evenodd"/><path d="M2641 1126 2641 1993.06" stroke="#FFFFFF" stroke-width="2.29167" stroke-linecap="butt" stroke-linejoin="miter" stroke-miterlimit="8" stroke-opacity="1" fill="none" fill-rule="evenodd"/><path d="M1648.5 1573C1648.5 1487.12 1765.35 1417.5 1909.5 1417.5 2053.65 1417.5 2170.5 1487.12 2170.5 1573 2170.5 1658.88 2053.65 1728.5 1909.5 1728.5 1765.35 1728.5 1648.5 1658.88 1648.5 1573Z" stroke="#FFFFFF" stroke-width="4.58333" stroke-linecap="butt" stroke-linejoin="miter" stroke-miterlimit="8" stroke-opacity="1" fill="none" fill-rule="evenodd"/><path d="M2927.97 1542.55 2932.67 1542.55 2932.67 1602.21 2925.38 1602.21 2925.38 1555.73C2923.62 1557.4 2921.32 1559.08 2918.47 1560.75 2915.61 1562.43 2913.05 1563.68 2910.79 1564.52L2910.79 1557.47C2914.86 1555.55 2918.43 1553.23 2921.48 1550.5 2924.54 1547.77 2926.7 1545.12 2927.97 1542.55Z" stroke="#FFFFFF" stroke-width="3" stroke-linecap="butt" stroke-linejoin="round" stroke-miterlimit="10" stroke-opacity="1" fill="none" fill-rule="evenodd"/><text fill="#000000" fill-opacity="0" font-family="Arial,Arial_MSFontService,sans-serif" font-size="59.6562" direction="ltr" writing-mode="lr-tb" x="2910.79" y="1594.75">1</text><path d="M2973.8 1542.55 2978.5 1542.55 2978.5 1602.21 2971.21 1602.21 2971.21 1555.73C2969.45 1557.4 2967.15 1559.08 2964.3 1560.75 2961.45 1562.43 2958.89 1563.68 2956.62 1564.52L2956.62 1557.47C2960.7 1555.55 2964.26 1553.23 2967.32 1550.5 2970.37 1547.77 2972.53 1545.12 2973.8 1542.55Z" stroke="#FFFFFF" stroke-width="3" stroke-linecap="butt" stroke-linejoin="round" stroke-miterlimit="10" stroke-opacity="1" fill="none" fill-rule="evenodd"/><text fill="#000000" fill-opacity="0" font-family="Arial,Arial_MSFontService,sans-serif" font-size="59.6562" direction="ltr" writing-mode="lr-tb" x="2956.62" y="1594.75">1</text><path d="M2272.41 1548.59C2269.06 1548.59 2266.38 1550.01 2264.38 1552.85 2261.87 1556.47 2260.62 1563.16 2260.62 1572.91 2260.62 1582.66 2261.76 1589.15 2264.04 1592.38 2266.32 1595.61 2269.14 1597.23 2272.49 1597.23 2275.84 1597.23 2278.66 1595.6 2280.94 1592.36 2283.22 1589.12 2284.36 1582.64 2284.36 1572.91 2284.36 1563.13 2283.22 1556.63 2280.94 1553.42 2278.66 1550.2 2275.81 1548.59 2272.41 1548.59ZM2272.49 1542.55C2275.68 1542.55 2278.47 1543.2 2280.88 1544.48 2283.28 1545.76 2285.27 1547.61 2286.84 1550.03 2288.4 1552.45 2289.63 1555.39 2290.52 1558.87 2291.42 1562.34 2291.86 1567.02 2291.86 1572.91 2291.86 1579.88 2291.15 1585.51 2289.71 1589.79 2288.28 1594.07 2286.14 1597.38 2283.29 1599.72 2280.44 1602.05 2276.84 1603.22 2272.49 1603.22 2266.76 1603.22 2262.26 1601.17 2258.99 1597.06 2255.08 1592.12 2253.12 1584.07 2253.12 1572.91 2253.12 1565.88 2253.84 1560.23 2255.29 1555.95 2256.73 1551.67 2258.88 1548.36 2261.73 1546.04 2264.58 1543.72 2268.17 1542.55 2272.49 1542.55Z" stroke="#FFFFFF" stroke-width="3" stroke-linecap="butt" stroke-linejoin="round" stroke-miterlimit="10" stroke-opacity="1" fill="none" fill-rule="evenodd"/><text fill="#000000" fill-opacity="0" font-family="Arial,Arial_MSFontService,sans-serif" font-size="60.6694" direction="ltr" writing-mode="lr-tb" x="2253.12" y="1595.64">0</text><path d="M2321.73 1542.55 2326.43 1542.55 2326.43 1602.21 2319.13 1602.21 2319.13 1555.73C2317.38 1557.4 2315.07 1559.08 2312.22 1560.75 2309.37 1562.43 2306.81 1563.68 2304.54 1564.52L2304.54 1557.47C2308.62 1555.55 2312.19 1553.23 2315.24 1550.5 2318.3 1547.77 2320.46 1545.12 2321.73 1542.55Z" stroke="#FFFFFF" stroke-width="3" stroke-linecap="butt" stroke-linejoin="round" stroke-miterlimit="10" stroke-opacity="1" fill="none" fill-rule="evenodd"/><text fill="#000000" fill-opacity="0" font-family="Arial,Arial_MSFontService,sans-serif" font-size="59.6562" direction="ltr" writing-mode="lr-tb" x="2304.54" y="1594.75">1</text><path d="M1924.83 1549.89C1921.48 1549.89 1918.81 1551.31 1916.81 1554.14 1914.3 1557.76 1913.04 1564.45 1913.04 1574.21 1913.04 1583.96 1914.18 1590.45 1916.46 1593.68 1918.75 1596.91 1921.56 1598.52 1924.91 1598.52 1928.26 1598.52 1931.08 1596.9 1933.36 1593.66 1935.65 1590.42 1936.79 1583.93 1936.79 1574.21 1936.79 1564.42 1935.65 1557.93 1933.36 1554.71 1931.08 1551.5 1928.24 1549.89 1924.83 1549.89ZM1879 1549.89C1875.65 1549.89 1872.98 1551.31 1870.98 1554.14 1868.46 1557.76 1867.21 1564.45 1867.21 1574.21 1867.21 1583.96 1868.35 1590.45 1870.63 1593.68 1872.91 1596.91 1875.73 1598.52 1879.08 1598.52 1882.43 1598.52 1885.25 1596.9 1887.53 1593.66 1889.81 1590.42 1890.96 1583.93 1890.96 1574.21 1890.96 1564.42 1889.81 1557.93 1887.53 1554.71 1885.25 1551.5 1882.4 1549.89 1879 1549.89ZM1924.91 1543.85C1928.1 1543.85 1930.9 1544.49 1933.3 1545.78 1935.71 1547.06 1937.69 1548.91 1939.26 1551.33 1940.83 1553.75 1942.06 1556.69 1942.95 1560.16 1943.84 1563.63 1944.29 1568.32 1944.29 1574.21 1944.29 1581.18 1943.57 1586.8 1942.14 1591.09 1940.71 1595.37 1938.57 1598.68 1935.72 1601.01 1932.86 1603.35 1929.26 1604.52 1924.91 1604.52 1919.19 1604.52 1914.69 1602.47 1911.42 1598.36 1907.5 1593.42 1905.54 1585.36 1905.54 1574.21 1905.54 1567.18 1906.27 1561.53 1907.71 1557.24 1909.16 1552.96 1911.3 1549.66 1914.15 1547.34 1917 1545.01 1920.59 1543.85 1924.91 1543.85ZM1879.08 1543.85C1882.27 1543.85 1885.07 1544.49 1887.47 1545.78 1889.88 1547.06 1891.86 1548.91 1893.43 1551.33 1894.99 1553.75 1896.22 1556.69 1897.12 1560.16 1898.01 1563.63 1898.45 1568.32 1898.45 1574.21 1898.45 1581.18 1897.74 1586.8 1896.31 1591.09 1894.87 1595.37 1892.73 1598.68 1889.88 1601.01 1887.03 1603.35 1883.43 1604.52 1879.08 1604.52 1873.35 1604.52 1868.85 1602.47 1865.59 1598.36 1861.67 1593.42 1859.71 1585.36 1859.71 1574.21 1859.71 1567.18 1860.43 1561.53 1861.88 1557.24 1863.32 1552.96 1865.47 1549.66 1868.32 1547.34 1871.17 1545.01 1874.76 1543.85 1879.08 1543.85Z" stroke="#FFFFFF" stroke-width="3" stroke-linecap="butt" stroke-linejoin="round" stroke-miterlimit="10" stroke-opacity="1" fill="none" fill-rule="evenodd"/><text fill="#000000" fill-opacity="0" font-family="Arial,Arial_MSFontService,sans-serif" font-size="60.6694" direction="ltr" writing-mode="lr-tb" x="1859.71" y="1596.94">00</text><path d="M1426.39 1542.55 1431.09 1542.55 1431.09 1602.21 1423.8 1602.21 1423.8 1555.73C1422.04 1557.4 1419.74 1559.08 1416.89 1560.75 1414.04 1562.43 1411.48 1563.68 1409.21 1564.52L1409.21 1557.47C1413.29 1555.55 1416.85 1553.23 1419.91 1550.5 1422.96 1547.77 1425.12 1545.12 1426.39 1542.55Z" stroke="#FFFFFF" stroke-width="3" stroke-linecap="butt" stroke-linejoin="round" stroke-miterlimit="10" stroke-opacity="1" fill="none" fill-rule="evenodd"/><text fill="#000000" fill-opacity="0" font-family="Arial,Arial_MSFontService,sans-serif" font-size="59.6562" direction="ltr" writing-mode="lr-tb" x="1409.21" y="1594.75">1</text><path d="M1468.74 1548.59C1465.39 1548.59 1462.71 1550.01 1460.72 1552.85 1458.2 1556.47 1456.95 1563.16 1456.95 1572.91 1456.95 1582.66 1458.09 1589.15 1460.37 1592.38 1462.65 1595.61 1465.47 1597.23 1468.82 1597.23 1472.17 1597.23 1474.99 1595.6 1477.27 1592.36 1479.55 1589.12 1480.7 1582.64 1480.7 1572.91 1480.7 1563.13 1479.55 1556.63 1477.27 1553.42 1474.99 1550.2 1472.14 1548.59 1468.74 1548.59ZM1468.82 1542.55C1472.01 1542.55 1474.81 1543.2 1477.21 1544.48 1479.61 1545.76 1481.6 1547.61 1483.17 1550.03 1484.73 1552.45 1485.96 1555.39 1486.86 1558.87 1487.75 1562.34 1488.19 1567.02 1488.19 1572.91 1488.19 1579.88 1487.48 1585.51 1486.05 1589.79 1484.61 1594.07 1482.47 1597.38 1479.62 1599.72 1476.77 1602.05 1473.17 1603.22 1468.82 1603.22 1463.09 1603.22 1458.59 1601.17 1455.33 1597.06 1451.41 1592.12 1449.45 1584.07 1449.45 1572.91 1449.45 1565.88 1450.17 1560.23 1451.62 1555.95 1453.06 1551.67 1455.21 1548.36 1458.06 1546.04 1460.91 1543.72 1464.5 1542.55 1468.82 1542.55Z" stroke="#FFFFFF" stroke-width="3" stroke-linecap="butt" stroke-linejoin="round" stroke-miterlimit="10" stroke-opacity="1" fill="none" fill-rule="evenodd"/><text fill="#000000" fill-opacity="0" font-family="Arial,Arial_MSFontService,sans-serif" font-size="60.6694" direction="ltr" writing-mode="lr-tb" x="1449.45" y="1595.64">0</text><path d="M2869.86 2227.45 2880.28 2227.45 2880.28 2306.19 2869.86 2306.19ZM2836.7 2227.45 2858.02 2227.45 2858.02 2235.45 2846.37 2235.45 2846.37 2320.04 2858.02 2320.04 2858.02 2328.05 2836.7 2328.05ZM2824.22 2226.1C2826.94 2226.1 2829.95 2226.43 2833.24 2227.07L2831.79 2235.5C2829.79 2235.14 2827.89 2234.97 2826.1 2234.97 2823.16 2234.97 2821.09 2235.59 2819.87 2236.85 2818.65 2238.1 2818.04 2240.44 2818.04 2243.88L2818.04 2249.15 2829.16 2249.15 2829.16 2256.67 2818.04 2256.67 2818.04 2306.19 2808.43 2306.19 2808.43 2256.67 2799.89 2256.67 2799.89 2249.15 2808.43 2249.15 2808.43 2243.08C2808.43 2239.24 2808.77 2236.4 2809.45 2234.54 2810.38 2232.03 2812.02 2230 2814.36 2228.44 2816.71 2226.88 2819.99 2226.1 2824.22 2226.1Z" stroke="#FFFFFF" stroke-width="3" stroke-linecap="butt" stroke-linejoin="round" stroke-miterlimit="10" stroke-opacity="1" fill="none" fill-rule="evenodd"/><text fill="#000000" fill-opacity="0" font-family="Arial,Arial_MSFontService,sans-serif" font-size="101.943" direction="ltr" writing-mode="lr-tb" x="2799.89" y="2315.3">f[I </text><path d="M2923.82 2272.83 2953.52 2272.83 2953.52 2282.55 2923.82 2282.55Z" stroke="#FFFFFF" stroke-width="3" stroke-linecap="butt" stroke-linejoin="round" stroke-miterlimit="10" stroke-opacity="1" fill="none" fill-rule="evenodd"/><text fill="#000000" fill-opacity="0" font-family="Arial,Arial_MSFontService,sans-serif" font-size="9.72168" direction="ltr" writing-mode="lr-tb" x="2923.82" y="2281.34">-</text><path d="M3028.07 2295.18 3039.08 2295.18 3039.08 2306.19C3039.08 2310.23 3038.36 2313.5 3036.93 2315.99 3035.5 2318.48 3033.23 2320.4 3030.11 2321.76L3027.43 2317.63C3029.47 2316.73 3030.97 2315.42 3031.94 2313.68 3032.9 2311.94 3033.44 2309.45 3033.55 2306.19L3028.07 2306.19ZM3086.22 2249.15 3095.89 2249.15 3095.89 2309.3C3095.89 2316.32 3094.98 2321.21 3093.15 2323.96 3090.82 2327.55 3086.96 2329.34 3081.55 2329.34 3078.93 2329.34 3076.41 2329 3073.98 2328.32L3075.8 2320.1C3077.73 2320.6 3079.26 2320.85 3080.37 2320.85 3082.34 2320.85 3083.8 2320.2 3084.77 2318.89 3085.74 2317.58 3086.22 2314.31 3086.22 2309.09ZM3086.22 2227.45 3095.89 2227.45 3095.89 2238.67 3086.22 2238.67ZM2991.74 2227.12 2997.97 2227.12 2997.97 2306.19 2988.31 2306.19 2988.31 2244.58C2985.98 2246.8 2982.93 2249.02 2979.15 2251.24 2975.37 2253.46 2971.98 2255.13 2968.97 2256.24L2968.97 2246.89C2974.38 2244.35 2979.1 2241.27 2983.15 2237.65 2987.2 2234.03 2990.06 2230.53 2991.74 2227.12Z" stroke="#FFFFFF" stroke-width="3" stroke-linecap="butt" stroke-linejoin="round" stroke-miterlimit="10" stroke-opacity="1" fill="none" fill-rule="evenodd"/><text fill="#000000" fill-opacity="0" font-family="Arial,Arial_MSFontService,sans-serif" font-size="102.212" direction="ltr" writing-mode="lr-tb" x="2968.97" y="2316.56">1, j </text><path d="M3137.51 2272.83 3167.22 2272.83 3167.22 2282.55 3137.51 2282.55Z" stroke="#FFFFFF" stroke-width="3" stroke-linecap="butt" stroke-linejoin="round" stroke-miterlimit="10" stroke-opacity="1" fill="none" fill-rule="evenodd"/><text fill="#000000" fill-opacity="0" font-family="Arial,Arial_MSFontService,sans-serif" font-size="9.72168" direction="ltr" writing-mode="lr-tb" x="3137.51" y="2281.34">-</text><path d="M3350.64 2241.41 3359.77 2241.41 3359.77 2262.84 3381.2 2262.84 3381.2 2271.87 3359.77 2271.87 3359.77 2293.46 3350.64 2293.46 3350.64 2271.87 3329.21 2271.87 3329.21 2262.84 3350.64 2262.84ZM3264.45 2227.45 3285.77 2227.45 3285.77 2328.05 3264.45 2328.05 3264.45 2320.04 3276.11 2320.04 3276.11 2235.45 3264.45 2235.45ZM3452.37 2227.12 3458.6 2227.12 3458.6 2306.19 3448.93 2306.19 3448.93 2244.58C3446.6 2246.8 3443.55 2249.02 3439.77 2251.24 3436 2253.46 3432.6 2255.13 3429.59 2256.24L3429.59 2246.89C3435 2244.35 3439.73 2241.27 3443.77 2237.65 3447.82 2234.03 3450.69 2230.53 3452.37 2227.12ZM3235.81 2227.12 3242.04 2227.12 3242.04 2306.19 3232.37 2306.19 3232.37 2244.58C3230.04 2246.8 3226.99 2249.02 3223.21 2251.24 3219.43 2253.46 3216.04 2255.13 3213.03 2256.24L3213.03 2246.89C3218.44 2244.35 3223.17 2241.27 3227.21 2237.65 3231.26 2234.03 3234.12 2230.53 3235.81 2227.12Z" stroke="#FFFFFF" stroke-width="3" stroke-linecap="butt" stroke-linejoin="round" stroke-miterlimit="10" stroke-opacity="1" fill="none" fill-rule="evenodd"/><text fill="#000000" fill-opacity="0" font-family="Arial,Arial_MSFontService,sans-serif" font-size="100.923" direction="ltr" writing-mode="lr-tb" x="3213.03" y="2315.43">1] + 1</text><path d="M2078.67 2218.72 2089.09 2218.72 2089.09 2297.46 2078.67 2297.46ZM2045.52 2218.72 2066.84 2218.72 2066.84 2226.72 2055.18 2226.72 2055.18 2311.31 2066.84 2311.31 2066.84 2319.32 2045.52 2319.32ZM2033.04 2217.37C2035.76 2217.37 2038.77 2217.7 2042.06 2218.34L2040.61 2226.77C2038.6 2226.42 2036.71 2226.24 2034.92 2226.24 2031.98 2226.24 2029.9 2226.86 2028.69 2228.12 2027.47 2229.37 2026.86 2231.72 2026.86 2235.15L2026.86 2240.42 2037.98 2240.42 2037.98 2247.94 2026.86 2247.94 2026.86 2297.46 2017.25 2297.46 2017.25 2247.94 2008.71 2247.94 2008.71 2240.42 2017.25 2240.42 2017.25 2234.35C2017.25 2230.52 2017.59 2227.67 2018.27 2225.81 2019.2 2223.3 2020.83 2221.27 2023.18 2219.71 2025.53 2218.15 2028.81 2217.37 2033.04 2217.37Z" stroke="#FFFFFF" stroke-width="3" stroke-linecap="butt" stroke-linejoin="round" stroke-miterlimit="10" stroke-opacity="1" fill="none" fill-rule="evenodd"/><text fill="#000000" fill-opacity="0" font-family="Arial,Arial_MSFontService,sans-serif" font-size="101.943" direction="ltr" writing-mode="lr-tb" x="2008.71" y="2306.57">f[I </text><path d="M2132.63 2264.1 2162.34 2264.1 2162.34 2273.82 2132.63 2273.82Z" stroke="#FFFFFF" stroke-width="3" stroke-linecap="butt" stroke-linejoin="round" stroke-miterlimit="10" stroke-opacity="1" fill="none" fill-rule="evenodd"/><text fill="#000000" fill-opacity="0" font-family="Arial,Arial_MSFontService,sans-serif" font-size="9.72168" direction="ltr" writing-mode="lr-tb" x="2132.63" y="2272.61">-</text><path d="M2297.62 2286.45 2308.63 2286.45 2308.63 2297.46C2308.63 2301.5 2307.91 2304.77 2306.48 2307.26 2305.05 2309.75 2302.77 2311.67 2299.66 2313.03L2296.97 2308.9C2299.01 2308 2300.52 2306.69 2301.48 2304.95 2302.45 2303.21 2302.99 2300.72 2303.09 2297.46L2297.62 2297.46ZM2355.77 2240.42 2365.44 2240.42 2365.44 2300.57C2365.44 2307.59 2364.52 2312.48 2362.7 2315.24 2360.37 2318.82 2356.5 2320.61 2351.09 2320.61 2348.48 2320.61 2345.96 2320.27 2343.52 2319.59L2345.35 2311.37C2347.28 2311.87 2348.8 2312.12 2349.91 2312.12 2351.88 2312.12 2353.35 2311.47 2354.32 2310.16 2355.28 2308.85 2355.77 2305.59 2355.77 2300.36ZM2375.3 2218.72 2396.62 2218.72 2396.62 2319.32 2375.3 2319.32 2375.3 2311.31 2386.96 2311.31 2386.96 2226.72 2375.3 2226.72ZM2355.77 2218.72 2365.44 2218.72 2365.44 2229.94 2355.77 2229.94ZM2230.93 2218.4 2237.16 2218.4 2237.16 2297.46 2227.49 2297.46 2227.49 2235.85C2225.16 2238.07 2222.11 2240.29 2218.33 2242.51 2214.55 2244.73 2211.16 2246.4 2208.15 2247.51L2208.15 2238.16C2213.56 2235.62 2218.29 2232.54 2222.33 2228.92 2226.38 2225.31 2229.24 2221.8 2230.93 2218.4Z" stroke="#FFFFFF" stroke-width="3" stroke-linecap="butt" stroke-linejoin="round" stroke-miterlimit="10" stroke-opacity="1" fill="none" fill-rule="evenodd"/><text fill="#000000" fill-opacity="0" font-family="Arial,Arial_MSFontService,sans-serif" font-size="102.212" direction="ltr" writing-mode="lr-tb" x="2208.15" y="2307.83">1 , j] </text><path d="M1390.37 2268.08 1401.38 2268.08 1401.38 2279.1C1401.38 2283.14 1400.66 2286.41 1399.23 2288.9 1397.8 2291.39 1395.52 2293.31 1392.41 2294.67L1389.72 2290.54C1391.76 2289.64 1393.27 2288.32 1394.23 2286.59 1395.2 2284.85 1395.74 2282.35 1395.84 2279.1L1390.37 2279.1ZM1448.52 2222.05 1458.19 2222.05 1458.19 2282.21C1458.19 2289.23 1457.27 2294.12 1455.45 2296.87 1453.12 2300.45 1449.25 2302.24 1443.84 2302.24 1441.23 2302.24 1438.71 2301.9 1436.27 2301.22L1438.1 2293.01C1440.03 2293.51 1441.55 2293.76 1442.66 2293.76 1444.63 2293.76 1446.1 2293.1 1447.07 2291.8 1448.03 2290.49 1448.52 2287.22 1448.52 2282ZM1448.52 2200.36 1458.19 2200.36 1458.19 2211.58 1448.52 2211.58ZM1360.49 2200.36 1370.91 2200.36 1370.91 2279.1 1360.49 2279.1ZM1327.33 2200.36 1348.65 2200.36 1348.65 2208.36 1337 2208.36 1337 2292.95 1348.65 2292.95 1348.65 2300.96 1327.33 2300.96ZM1314.85 2199.01C1317.57 2199.01 1320.58 2199.33 1323.87 2199.98L1322.42 2208.41C1320.42 2208.05 1318.52 2207.87 1316.73 2207.87 1313.79 2207.87 1311.72 2208.5 1310.5 2209.75 1309.28 2211.01 1308.67 2213.35 1308.67 2216.79L1308.67 2222.05 1319.79 2222.05 1319.79 2229.57 1308.67 2229.57 1308.67 2279.1 1299.06 2279.1 1299.06 2229.57 1290.52 2229.57 1290.52 2222.05 1299.06 2222.05 1299.06 2215.99C1299.06 2212.15 1299.4 2209.31 1300.08 2207.45 1301.01 2204.94 1302.65 2202.91 1304.99 2201.35 1307.34 2199.79 1310.62 2199.01 1314.85 2199.01Z" stroke="#FFFFFF" stroke-width="3" stroke-linecap="butt" stroke-linejoin="round" stroke-miterlimit="10" stroke-opacity="1" fill="none" fill-rule="evenodd"/><text fill="#000000" fill-opacity="0" font-family="Arial,Arial_MSFontService,sans-serif" font-size="103.232" direction="ltr" writing-mode="lr-tb" x="1290.52" y="2289.34">f[I, j </text><path d="M1499.81 2245.74 1529.51 2245.74 1529.51 2255.46 1499.81 2255.46Z" stroke="#FFFFFF" stroke-width="3" stroke-linecap="butt" stroke-linejoin="round" stroke-miterlimit="10" stroke-opacity="1" fill="none" fill-rule="evenodd"/><text fill="#000000" fill-opacity="0" font-family="Arial,Arial_MSFontService,sans-serif" font-size="9.72168" direction="ltr" writing-mode="lr-tb" x="1499.81" y="2254.25">-</text><path d="M1626.75 2200.36 1648.07 2200.36 1648.07 2300.96 1626.75 2300.96 1626.75 2292.95 1638.4 2292.95 1638.4 2208.36 1626.75 2208.36ZM1598.1 2200.03 1604.33 2200.03 1604.33 2279.1 1594.66 2279.1 1594.66 2217.49C1592.34 2219.71 1589.28 2221.93 1585.51 2224.15 1581.73 2226.37 1578.34 2228.03 1575.33 2229.14L1575.33 2219.8C1580.74 2217.26 1585.46 2214.18 1589.51 2210.56 1593.55 2206.94 1596.42 2203.43 1598.1 2200.03Z" stroke="#FFFFFF" stroke-width="3" stroke-linecap="butt" stroke-linejoin="round" stroke-miterlimit="10" stroke-opacity="1" fill="none" fill-rule="evenodd"/><text fill="#000000" fill-opacity="0" font-family="Arial,Arial_MSFontService,sans-serif" font-size="100.923" direction="ltr" writing-mode="lr-tb" x="1575.33" y="2288.34">1] </text></g></svg>