<svg width="2420" height="1228" xmlns="http://www.w3.org/2000/svg" xmlns:xlink="http://www.w3.org/1999/xlink" xml:space="preserve" overflow="hidden"><defs><clipPath id="clip0"><rect x="1246" y="1072" width="2420" height="1228"/></clipPath></defs><g clip-path="url(#clip0)" transform="translate(-1246 -1072)"><path d="M1251.5 1562C1251.5 1294.97 1719.81 1078.5 2297.5 1078.5 2875.19 1078.5 3343.5 1294.97 3343.5 1562 3343.5 1829.03 2875.19 2045.5 2297.5 2045.5 1719.81 2045.5 1251.5 1829.03 1251.5 1562Z" stroke="#000000" stroke-width="4.58333" stroke-linecap="butt" stroke-linejoin="miter" stroke-miterlimit="8" stroke-opacity="1" fill="none" fill-rule="evenodd"/><path d="M1915 1126 1915 1993.06" stroke="#000000" stroke-width="2.29167" stroke-linecap="butt" stroke-linejoin="miter" stroke-miterlimit="8" stroke-opacity="1" fill="none" fill-rule="evenodd"/><path d="M2641 1126 2641 1993.06" stroke="#000000" stroke-width="2.29167" stroke-linecap="butt" stroke-linejoin="miter" stroke-miterlimit="8" stroke-opacity="1" fill="none" fill-rule="evenodd"/><path d="M1648.5 1573C1648.5 1487.12 1765.35 1417.5 1909.5 1417.5 2053.65 1417.5 2170.5 1487.12 2170.5 1573 2170.5 1658.88 2053.65 1728.5 1909.5 1728.5 1765.35 1728.5 1648.5 1658.88 1648.5 1573Z" stroke="#000000" stroke-width="4.58333" stroke-linecap="butt" stroke-linejoin="miter" stroke-miterlimit="8" stroke-opacity="1" fill="none" fill-rule="evenodd"/><path d="M2876.53 1542.55 2881.23 1542.55 2881.23 1602.21 2873.93 1602.21 2873.93 1555.73C2872.18 1557.4 2869.88 1559.08 2867.02 1560.75 2864.17 1562.43 2861.61 1563.68 2859.34 1564.52L2859.34 1557.47C2863.42 1555.55 2866.99 1553.23 2870.04 1550.5 2873.1 1547.77 2875.26 1545.12 2876.53 1542.55Z" stroke="#000000" stroke-width="3" stroke-linecap="butt" stroke-linejoin="round" stroke-miterlimit="10" stroke-opacity="1" fill="none" fill-rule="evenodd"/><text fill="#000000" fill-opacity="0" font-family="Arial,Arial_MSFontService,sans-serif" font-size="59.6562" direction="ltr" writing-mode="lr-tb" x="2859.34" y="1594.75">1</text><path d="M2922.36 1542.55 2927.06 1542.55 2927.06 1602.21 2919.77 1602.21 2919.77 1555.73C2918.01 1557.4 2915.71 1559.08 2912.86 1560.75 2910.01 1562.43 2907.45 1563.68 2905.18 1564.52L2905.18 1557.47C2909.26 1555.55 2912.82 1553.23 2915.88 1550.5 2918.93 1547.77 2921.09 1545.12 2922.36 1542.55Z" stroke="#000000" stroke-width="3" stroke-linecap="butt" stroke-linejoin="round" stroke-miterlimit="10" stroke-opacity="1" fill="none" fill-rule="evenodd"/><text fill="#000000" fill-opacity="0" font-family="Arial,Arial_MSFontService,sans-serif" font-size="59.6562" direction="ltr" writing-mode="lr-tb" x="2905.18" y="1594.75">1</text><path d="M2310.09 1550.94C2306.74 1550.94 2304.06 1552.36 2302.06 1555.19 2299.55 1558.82 2298.29 1565.5 2298.29 1575.26 2298.29 1585.01 2299.44 1591.5 2301.72 1594.73 2304 1597.96 2306.82 1599.57 2310.17 1599.57 2313.52 1599.57 2316.34 1597.95 2318.62 1594.71 2320.9 1591.47 2322.04 1584.98 2322.04 1575.26 2322.04 1565.47 2320.9 1558.98 2318.62 1555.76 2316.34 1552.55 2313.49 1550.94 2310.09 1550.94ZM2310.17 1544.9C2313.36 1544.9 2316.15 1545.54 2318.56 1546.83 2320.96 1548.11 2322.95 1549.96 2324.52 1552.38 2326.08 1554.8 2327.31 1557.74 2328.2 1561.21 2329.1 1564.68 2329.54 1569.37 2329.54 1575.26 2329.54 1582.23 2328.82 1587.85 2327.39 1592.14 2325.96 1596.42 2323.82 1599.73 2320.97 1602.06 2318.12 1604.4 2314.52 1605.57 2310.17 1605.57 2304.44 1605.57 2299.94 1603.52 2296.67 1599.41 2292.76 1594.47 2290.8 1586.41 2290.8 1575.26 2290.8 1568.23 2291.52 1562.58 2292.97 1558.29 2294.41 1554.01 2296.56 1550.71 2299.41 1548.39 2302.26 1546.06 2305.85 1544.9 2310.17 1544.9Z" stroke="#000000" stroke-width="3" stroke-linecap="butt" stroke-linejoin="round" stroke-miterlimit="10" stroke-opacity="1" fill="none" fill-rule="evenodd"/><text fill="#000000" fill-opacity="0" font-family="Arial,Arial_MSFontService,sans-serif" font-size="60.6694" direction="ltr" writing-mode="lr-tb" x="2290.8" y="1597.99">0</text><path d="M2359.41 1544.9 2364.11 1544.9 2364.11 1604.56 2356.81 1604.56 2356.81 1558.07C2355.06 1559.75 2352.75 1561.42 2349.9 1563.1 2347.05 1564.77 2344.49 1566.03 2342.22 1566.87L2342.22 1559.81C2346.3 1557.9 2349.87 1555.57 2352.92 1552.84 2355.98 1550.12 2358.14 1547.47 2359.41 1544.9Z" stroke="#000000" stroke-width="3" stroke-linecap="butt" stroke-linejoin="round" stroke-miterlimit="10" stroke-opacity="1" fill="none" fill-rule="evenodd"/><text fill="#000000" fill-opacity="0" font-family="Arial,Arial_MSFontService,sans-serif" font-size="59.6562" direction="ltr" writing-mode="lr-tb" x="2342.22" y="1597.1">1</text><path d="M1870.3 1548.92C1866.95 1548.92 1864.28 1550.34 1862.28 1553.18 1859.77 1556.8 1858.51 1563.48 1858.51 1573.24 1858.51 1582.99 1859.65 1589.48 1861.93 1592.71 1864.22 1595.94 1867.03 1597.55 1870.38 1597.55 1873.73 1597.55 1876.55 1595.93 1878.83 1592.69 1881.12 1589.45 1882.26 1582.96 1882.26 1573.24 1882.26 1563.46 1881.12 1556.96 1878.83 1553.74 1876.55 1550.53 1873.71 1548.92 1870.3 1548.92ZM1870.38 1542.88C1873.57 1542.88 1876.37 1543.53 1878.77 1544.81 1881.18 1546.09 1883.16 1547.94 1884.73 1550.36 1886.3 1552.78 1887.53 1555.72 1888.42 1559.2 1889.31 1562.67 1889.76 1567.35 1889.76 1573.24 1889.76 1580.21 1889.04 1585.84 1887.61 1590.12 1886.18 1594.4 1884.04 1597.71 1881.18 1600.05 1878.33 1602.38 1874.73 1603.55 1870.38 1603.55 1864.66 1603.55 1860.16 1601.5 1856.89 1597.39 1852.97 1592.45 1851.01 1584.4 1851.01 1573.24 1851.01 1566.21 1851.74 1560.56 1853.18 1556.28 1854.63 1552 1856.77 1548.69 1859.62 1546.37 1862.47 1544.05 1866.06 1542.88 1870.38 1542.88Z" stroke="#000000" stroke-width="3" stroke-linecap="butt" stroke-linejoin="round" stroke-miterlimit="10" stroke-opacity="1" fill="none" fill-rule="evenodd"/><text fill="#000000" fill-opacity="0" font-family="Arial,Arial_MSFontService,sans-serif" font-size="60.6694" direction="ltr" writing-mode="lr-tb" x="1851.01" y="1595.97">0</text><path d="M1916.14 1548.92C1912.79 1548.92 1910.11 1550.34 1908.11 1553.18 1905.6 1556.8 1904.34 1563.48 1904.34 1573.24 1904.34 1582.99 1905.48 1589.48 1907.77 1592.71 1910.05 1595.94 1912.87 1597.55 1916.22 1597.55 1919.57 1597.55 1922.38 1595.93 1924.67 1592.69 1926.95 1589.45 1928.09 1582.96 1928.09 1573.24 1928.09 1563.46 1926.95 1556.96 1924.67 1553.74 1922.38 1550.53 1919.54 1548.92 1916.14 1548.92ZM1916.22 1542.88C1919.41 1542.88 1922.2 1543.53 1924.61 1544.81 1927.01 1546.09 1929 1547.94 1930.56 1550.36 1932.13 1552.78 1933.36 1555.72 1934.25 1559.2 1935.14 1562.67 1935.59 1567.35 1935.59 1573.24 1935.59 1580.21 1934.87 1585.84 1933.44 1590.12 1932.01 1594.4 1929.87 1597.71 1927.02 1600.05 1924.17 1602.38 1920.57 1603.55 1916.22 1603.55 1910.49 1603.55 1905.99 1601.5 1902.72 1597.39 1898.8 1592.45 1896.85 1584.4 1896.85 1573.24 1896.85 1566.21 1897.57 1560.56 1899.01 1556.28 1900.46 1552 1902.61 1548.69 1905.46 1546.37 1908.31 1544.05 1911.89 1542.88 1916.22 1542.88Z" stroke="#000000" stroke-width="3" stroke-linecap="butt" stroke-linejoin="round" stroke-miterlimit="10" stroke-opacity="1" fill="none" fill-rule="evenodd"/><text fill="#000000" fill-opacity="0" font-family="Arial,Arial_MSFontService,sans-serif" font-size="60.6694" direction="ltr" writing-mode="lr-tb" x="1896.85" y="1595.97">0</text><path d="M2837.72 2178.44 2848.14 2178.44 2848.14 2257.18 2837.72 2257.18ZM2804.57 2178.44 2825.89 2178.44 2825.89 2186.44 2814.23 2186.44 2814.23 2271.04 2825.89 2271.04 2825.89 2279.04 2804.57 2279.04ZM2792.09 2177.1C2794.81 2177.1 2797.82 2177.42 2801.11 2178.07L2799.66 2186.5C2797.66 2186.14 2795.76 2185.96 2793.97 2185.96 2791.03 2185.96 2788.95 2186.59 2787.74 2187.84 2786.52 2189.09 2785.91 2191.44 2785.91 2194.88L2785.91 2200.14 2797.03 2200.14 2797.03 2207.66 2785.91 2207.66 2785.91 2257.18 2776.3 2257.18 2776.3 2207.66 2767.76 2207.66 2767.76 2200.14 2776.3 2200.14 2776.3 2194.07C2776.3 2190.24 2776.64 2187.39 2777.32 2185.53 2778.25 2183.02 2779.89 2180.99 2782.23 2179.43 2784.58 2177.88 2787.86 2177.1 2792.09 2177.1Z" stroke="#000000" stroke-width="3" stroke-linecap="butt" stroke-linejoin="round" stroke-miterlimit="10" stroke-opacity="1" fill="none" fill-rule="evenodd"/><text fill="#000000" fill-opacity="0" font-family="Arial,Arial_MSFontService,sans-serif" font-size="101.943" direction="ltr" writing-mode="lr-tb" x="2767.76" y="2266.3">f[I </text><path d="M2891.69 2223.83 2921.39 2223.83 2921.39 2233.55 2891.69 2233.55Z" stroke="#000000" stroke-width="3" stroke-linecap="butt" stroke-linejoin="round" stroke-miterlimit="10" stroke-opacity="1" fill="none" fill-rule="evenodd"/><text fill="#000000" fill-opacity="0" font-family="Arial,Arial_MSFontService,sans-serif" font-size="9.72168" direction="ltr" writing-mode="lr-tb" x="2891.69" y="2232.33">-</text><path d="M2995.94 2246.17 3006.95 2246.17 3006.95 2257.18C3006.95 2261.23 3006.23 2264.5 3004.8 2266.98 3003.37 2269.47 3001.09 2271.4 2997.98 2272.76L2995.29 2268.62C2997.34 2267.73 2998.84 2266.41 2999.81 2264.67 3000.77 2262.94 3001.31 2260.44 3001.42 2257.18L2995.94 2257.18ZM3054.09 2200.14 3063.76 2200.14 3063.76 2260.3C3063.76 2267.31 3062.84 2272.2 3061.02 2274.96 3058.69 2278.54 3054.82 2280.33 3049.42 2280.33 3046.8 2280.33 3044.28 2279.99 3041.84 2279.31L3043.67 2271.09C3045.6 2271.59 3047.13 2271.84 3048.24 2271.84 3050.2 2271.84 3051.67 2271.19 3052.64 2269.88 3053.61 2268.58 3054.09 2265.31 3054.09 2260.08ZM3054.09 2178.44 3063.76 2178.44 3063.76 2189.67 3054.09 2189.67ZM2959.61 2178.12 2965.84 2178.12 2965.84 2257.18 2956.17 2257.18 2956.17 2195.57C2953.85 2197.79 2950.79 2200.02 2947.02 2202.24 2943.24 2204.46 2939.85 2206.12 2936.84 2207.23L2936.84 2197.88C2942.25 2195.34 2946.97 2192.26 2951.02 2188.65 2955.06 2185.03 2957.93 2181.52 2959.61 2178.12Z" stroke="#000000" stroke-width="3" stroke-linecap="butt" stroke-linejoin="round" stroke-miterlimit="10" stroke-opacity="1" fill="none" fill-rule="evenodd"/><text fill="#000000" fill-opacity="0" font-family="Arial,Arial_MSFontService,sans-serif" font-size="102.212" direction="ltr" writing-mode="lr-tb" x="2936.84" y="2267.55">1, j </text><path d="M3105.38 2223.83 3135.09 2223.83 3135.09 2233.55 3105.38 2233.55Z" stroke="#000000" stroke-width="3" stroke-linecap="butt" stroke-linejoin="round" stroke-miterlimit="10" stroke-opacity="1" fill="none" fill-rule="evenodd"/><text fill="#000000" fill-opacity="0" font-family="Arial,Arial_MSFontService,sans-serif" font-size="9.72168" direction="ltr" writing-mode="lr-tb" x="3105.38" y="2232.33">-</text><path d="M3318.51 2192.41 3327.64 2192.41 3327.64 2213.84 3349.07 2213.84 3349.07 2222.86 3327.64 2222.86 3327.64 2244.45 3318.51 2244.45 3318.51 2222.86 3297.08 2222.86 3297.08 2213.84 3318.51 2213.84ZM3232.32 2178.44 3253.64 2178.44 3253.64 2279.04 3232.32 2279.04 3232.32 2271.04 3243.98 2271.04 3243.98 2186.44 3232.32 2186.44ZM3420.24 2178.12 3426.47 2178.12 3426.47 2257.18 3416.8 2257.18 3416.8 2195.57C3414.47 2197.79 3411.42 2200.02 3407.64 2202.24 3403.86 2204.46 3400.47 2206.12 3397.46 2207.23L3397.46 2197.88C3402.87 2195.34 3407.6 2192.26 3411.64 2188.65 3415.69 2185.03 3418.55 2181.52 3420.24 2178.12ZM3203.67 2178.12 3209.91 2178.12 3209.91 2257.18 3200.24 2257.18 3200.24 2195.57C3197.91 2197.79 3194.86 2200.02 3191.08 2202.24 3187.3 2204.46 3183.91 2206.12 3180.9 2207.23L3180.9 2197.88C3186.31 2195.34 3191.03 2192.26 3195.08 2188.65 3199.13 2185.03 3201.99 2181.52 3203.67 2178.12Z" stroke="#000000" stroke-width="3" stroke-linecap="butt" stroke-linejoin="round" stroke-miterlimit="10" stroke-opacity="1" fill="none" fill-rule="evenodd"/><text fill="#000000" fill-opacity="0" font-family="Arial,Arial_MSFontService,sans-serif" font-size="100.923" direction="ltr" writing-mode="lr-tb" x="3180.9" y="2266.43">1] + 1</text><path d="M1569.2 2246.17 1580.21 2246.17 1580.21 2257.18C1580.21 2261.23 1579.49 2264.5 1578.06 2266.98 1576.63 2269.47 1574.36 2271.4 1571.24 2272.76L1568.56 2268.62C1570.6 2267.73 1572.1 2266.41 1573.07 2264.67 1574.03 2262.94 1574.57 2260.44 1574.68 2257.18L1569.2 2257.18ZM1627.35 2200.14 1637.02 2200.14 1637.02 2260.3C1637.02 2267.32 1636.11 2272.2 1634.28 2274.96 1631.95 2278.54 1628.09 2280.33 1622.68 2280.33 1620.06 2280.33 1617.54 2279.99 1615.1 2279.31L1616.93 2271.09C1618.86 2271.59 1620.39 2271.85 1621.5 2271.85 1623.47 2271.85 1624.93 2271.19 1625.9 2269.88 1626.87 2268.58 1627.35 2265.31 1627.35 2260.08ZM1627.35 2178.44 1637.02 2178.44 1637.02 2189.67 1627.35 2189.67ZM1508.95 2178.44 1519.37 2178.44 1519.37 2257.18 1508.95 2257.18ZM1475.8 2178.44 1497.12 2178.44 1497.12 2186.44 1485.46 2186.44 1485.46 2271.04 1497.12 2271.04 1497.12 2279.04 1475.8 2279.04ZM1463.32 2177.1C1466.04 2177.1 1469.05 2177.42 1472.34 2178.07L1470.89 2186.5C1468.89 2186.14 1466.99 2185.96 1465.2 2185.96 1462.26 2185.96 1460.18 2186.59 1458.97 2187.84 1457.75 2189.09 1457.14 2191.44 1457.14 2194.88L1457.14 2200.14 1468.26 2200.14 1468.26 2207.66 1457.14 2207.66 1457.14 2257.18 1447.53 2257.18 1447.53 2207.66 1438.99 2207.66 1438.99 2200.14 1447.53 2200.14 1447.53 2194.07C1447.53 2190.24 1447.87 2187.39 1448.55 2185.53 1449.48 2183.03 1451.12 2180.99 1453.46 2179.44 1455.81 2177.88 1459.09 2177.1 1463.32 2177.1Z" stroke="#000000" stroke-width="3" stroke-linecap="butt" stroke-linejoin="round" stroke-miterlimit="10" stroke-opacity="1" fill="none" fill-rule="evenodd"/><text fill="#000000" fill-opacity="0" font-family="Arial,Arial_MSFontService,sans-serif" font-size="103.232" direction="ltr" writing-mode="lr-tb" x="1438.99" y="2267.43">f[I , j </text><path d="M1678.65 2223.83 1708.35 2223.83 1708.35 2233.55 1678.65 2233.55Z" stroke="#000000" stroke-width="3" stroke-linecap="butt" stroke-linejoin="round" stroke-miterlimit="10" stroke-opacity="1" fill="none" fill-rule="evenodd"/><text fill="#000000" fill-opacity="0" font-family="Arial,Arial_MSFontService,sans-serif" font-size="9.72168" direction="ltr" writing-mode="lr-tb" x="1678.65" y="2232.33">-</text><path d="M1805.58 2178.44 1826.91 2178.44 1826.91 2279.04 1805.58 2279.04 1805.58 2271.04 1817.24 2271.04 1817.24 2186.44 1805.58 2186.44ZM1776.94 2178.12 1783.17 2178.12 1783.17 2257.18 1773.5 2257.18 1773.5 2195.58C1771.17 2197.8 1768.12 2200.02 1764.34 2202.24 1760.56 2204.46 1757.17 2206.12 1754.16 2207.23L1754.16 2197.89C1759.57 2195.34 1764.3 2192.26 1768.34 2188.65 1772.39 2185.03 1775.25 2181.52 1776.94 2178.12Z" stroke="#000000" stroke-width="3" stroke-linecap="butt" stroke-linejoin="round" stroke-miterlimit="10" stroke-opacity="1" fill="none" fill-rule="evenodd"/><text fill="#000000" fill-opacity="0" font-family="Arial,Arial_MSFontService,sans-serif" font-size="100.923" direction="ltr" writing-mode="lr-tb" x="1754.16" y="2266.43">1] </text><path d="M2192.53 2178.44 2202.95 2178.44 2202.95 2257.18 2192.53 2257.18ZM2159.38 2178.44 2180.7 2178.44 2180.7 2186.44 2169.04 2186.44 2169.04 2271.04 2180.7 2271.04 2180.7 2279.04 2159.38 2279.04ZM2146.9 2177.1C2149.62 2177.1 2152.63 2177.42 2155.92 2178.07L2154.47 2186.5C2152.46 2186.14 2150.57 2185.96 2148.78 2185.96 2145.84 2185.96 2143.76 2186.59 2142.55 2187.84 2141.33 2189.09 2140.72 2191.44 2140.72 2194.88L2140.72 2200.14 2151.84 2200.14 2151.84 2207.66 2140.72 2207.66 2140.72 2257.18 2131.11 2257.18 2131.11 2207.66 2122.57 2207.66 2122.57 2200.14 2131.11 2200.14 2131.11 2194.07C2131.11 2190.24 2131.45 2187.39 2132.13 2185.53 2133.06 2183.02 2134.7 2180.99 2137.04 2179.44 2139.39 2177.88 2142.67 2177.1 2146.9 2177.1Z" stroke="#000000" stroke-width="3" stroke-linecap="butt" stroke-linejoin="round" stroke-miterlimit="10" stroke-opacity="1" fill="none" fill-rule="evenodd"/><text fill="#000000" fill-opacity="0" font-family="Arial,Arial_MSFontService,sans-serif" font-size="101.943" direction="ltr" writing-mode="lr-tb" x="2122.57" y="2266.3">f[I  </text><path d="M2276.86 2223.83 2306.56 2223.83 2306.56 2233.55 2276.86 2233.55Z" stroke="#000000" stroke-width="3" stroke-linecap="butt" stroke-linejoin="round" stroke-miterlimit="10" stroke-opacity="1" fill="none" fill-rule="evenodd"/><text fill="#000000" fill-opacity="0" font-family="Arial,Arial_MSFontService,sans-serif" font-size="9.72168" direction="ltr" writing-mode="lr-tb" x="2276.86" y="2232.33">-</text><path d="M2411.48 2246.17 2422.49 2246.17 2422.49 2257.18C2422.49 2261.23 2421.77 2264.5 2420.34 2266.98 2418.91 2269.47 2416.63 2271.4 2413.52 2272.76L2410.83 2268.62C2412.87 2267.73 2414.38 2266.41 2415.34 2264.67 2416.31 2262.94 2416.85 2260.44 2416.96 2257.18L2411.48 2257.18ZM2469.63 2200.14 2479.3 2200.14 2479.3 2260.3C2479.3 2267.32 2478.38 2272.2 2476.56 2274.96 2474.23 2278.54 2470.36 2280.33 2464.95 2280.33 2462.34 2280.33 2459.82 2279.99 2457.38 2279.31L2459.21 2271.09C2461.14 2271.59 2462.66 2271.84 2463.77 2271.84 2465.74 2271.84 2467.21 2271.19 2468.18 2269.88 2469.14 2268.58 2469.63 2265.31 2469.63 2260.08ZM2489.16 2178.44 2510.48 2178.44 2510.48 2279.04 2489.16 2279.04 2489.16 2271.04 2500.82 2271.04 2500.82 2186.44 2489.16 2186.44ZM2469.63 2178.44 2479.3 2178.44 2479.3 2189.67 2469.63 2189.67ZM2375.15 2178.12 2381.38 2178.12 2381.38 2257.18 2371.71 2257.18 2371.71 2195.58C2369.39 2197.8 2366.33 2200.02 2362.55 2202.24 2358.78 2204.46 2355.38 2206.12 2352.38 2207.23L2352.38 2197.88C2357.78 2195.34 2362.51 2192.26 2366.56 2188.65 2370.6 2185.03 2373.47 2181.52 2375.15 2178.12Z" stroke="#000000" stroke-width="3" stroke-linecap="butt" stroke-linejoin="round" stroke-miterlimit="10" stroke-opacity="1" fill="none" fill-rule="evenodd"/><text fill="#000000" fill-opacity="0" font-family="Arial,Arial_MSFontService,sans-serif" font-size="102.212" direction="ltr" writing-mode="lr-tb" x="2352.38" y="2267.55">1, j] </text><path d="M1437.14 1544.9 1441.84 1544.9 1441.84 1604.56 1434.54 1604.56 1434.54 1558.07C1432.79 1559.75 1430.48 1561.42 1427.63 1563.1 1424.78 1564.77 1422.22 1566.03 1419.95 1566.87L1419.95 1559.81C1424.03 1557.9 1427.6 1555.57 1430.65 1552.84 1433.71 1550.12 1435.87 1547.47 1437.14 1544.9Z" stroke="#000000" stroke-width="3" stroke-linecap="butt" stroke-linejoin="round" stroke-miterlimit="10" stroke-opacity="1" fill="none" fill-rule="evenodd"/><text fill="#000000" fill-opacity="0" font-family="Arial,Arial_MSFontService,sans-serif" font-size="59.6562" direction="ltr" writing-mode="lr-tb" x="1419.95" y="1597.1">1</text><path d="M1479.49 1550.94C1476.14 1550.94 1473.46 1552.36 1471.46 1555.19 1468.95 1558.82 1467.69 1565.5 1467.69 1575.26 1467.69 1585.01 1468.83 1591.5 1471.12 1594.73 1473.4 1597.96 1476.22 1599.57 1479.57 1599.57 1482.92 1599.57 1485.73 1597.95 1488.02 1594.71 1490.3 1591.47 1491.44 1584.98 1491.44 1575.26 1491.44 1565.47 1490.3 1558.98 1488.02 1555.76 1485.73 1552.55 1482.89 1550.94 1479.49 1550.94ZM1479.57 1544.9C1482.76 1544.9 1485.55 1545.54 1487.96 1546.83 1490.36 1548.11 1492.35 1549.96 1493.91 1552.38 1495.48 1554.8 1496.71 1557.74 1497.6 1561.21 1498.49 1564.68 1498.94 1569.37 1498.94 1575.26 1498.94 1582.23 1498.22 1587.85 1496.79 1592.14 1495.36 1596.42 1493.22 1599.73 1490.37 1602.06 1487.52 1604.4 1483.92 1605.57 1479.57 1605.57 1473.84 1605.57 1469.34 1603.52 1466.07 1599.41 1462.15 1594.47 1460.19 1586.41 1460.19 1575.26 1460.19 1568.23 1460.92 1562.58 1462.36 1558.29 1463.81 1554.01 1465.96 1550.71 1468.81 1548.39 1471.66 1546.06 1475.24 1544.9 1479.57 1544.9Z" stroke="#000000" stroke-width="3" stroke-linecap="butt" stroke-linejoin="round" stroke-miterlimit="10" stroke-opacity="1" fill="none" fill-rule="evenodd"/><text fill="#000000" fill-opacity="0" font-family="Arial,Arial_MSFontService,sans-serif" font-size="60.6694" direction="ltr" writing-mode="lr-tb" x="1460.19" y="1597.99">0</text></g></svg>